<svg width="64" height="64" viewBox="0 0 64 64" xmlns="http://www.w3.org/2000/svg">
  <defs>
    <linearGradient id="bg" x1="8" y1="6" x2="56" y2="58" gradientUnits="userSpaceOnUse">
      <stop stop-color="#22C55E"/>
      <stop offset="0.5" stop-color="#14B8A6"/>
      <stop offset="1" stop-color="#3B82F6"/>
    </linearGradient>

    <filter id="shadow" x="-20%" y="-20%" width="140%" height="140%">
      <feDropShadow dx="0" dy="4" stdDeviation="4" flood-color="#000000" flood-opacity="0.25"/>
    </filter>
  </defs>

  <rect width="64" height="64" rx="18" fill="url(#bg)"/>

  <!-- Book -->
  <path
    d="M16 19C16 16.8 17.8 15 20 15H30C32.2 15 34 16.8 34 19V48C34 46.3 32.7 45 31 45H20C17.8 45 16 43.2 16 41V19Z"
    fill="#FFFFFF"
    opacity="0.96"
    filter="url(#shadow)"
  />

  <path
    d="M48 19C48 16.8 46.2 15 44 15H34C31.8 15 30 16.8 30 19V48C30 46.3 31.3 45 33 45H44C46.2 45 48 43.2 48 41V19Z"
    fill="#F8FAFC"
    opacity="0.96"
    filter="url(#shadow)"
  />

  <!-- Lines -->
  <path d="M21 24H28" stroke="#14B8A6" stroke-width="2" stroke-linecap="round"/>
  <path d="M21 30H28" stroke="#14B8A6" stroke-width="2" stroke-linecap="round"/>
  <path d="M36 24H43" stroke="#3B82F6" stroke-width="2" stroke-linecap="round"/>
  <path d="M36 30H43" stroke="#3B82F6" stroke-width="2" stroke-linecap="round"/>

  <!-- AI Spark -->
  <path
    d="M32 8L34.1 13.9L40 16L34.1 18.1L32 24L29.9 18.1L24 16L29.9 13.9L32 8Z"
    fill="#FEF3C7"
  />

  <!-- Question mark -->
  <text
    x="32"
    y="39"
    text-anchor="middle"
    font-family="Arial, Helvetica, sans-serif"
    font-size="17"
    font-weight="800"
    fill="#0F172A"
  >?</text>
</svg>
